<?xml version="1.0" standalone="no"?>
<!DOCTYPE svg PUBLIC "-//W3C//DTD SVG 20010904//EN"
 "http://www.w3.org/TR/2001/REC-SVG-20010904/DTD/svg10.dtd">
<svg version="1.0" xmlns="http://www.w3.org/2000/svg"
 width="116.000000pt" height="116.000000pt" viewBox="0 0 116.000000 116.000000"
 preserveAspectRatio="xMidYMid meet">
<metadata>
Created by potrace 1.11, written by Peter Selinger 2001-2013
</metadata>
<g transform="translate(0.000000,116.000000) scale(0.100000,-0.100000)"
fill="#000000" stroke="none">
<path d="M0 580 l0 -580 580 0 580 0 0 580 0 580 -580 0 -580 0 0 -580z m342
188 c81 -84 148 -160 148 -168 0 -16 -298 -320 -314 -320 -16 0 -66 53 -66 69
0 9 53 69 117 133 l118 118 -118 118 c-77 77 -117 125 -117 139 0 22 44 62 69
63 8 0 81 -69 163 -152z m696 -426 c5 -73 9 -72 -252 -72 -167 0 -235 3 -244
12 -16 16 -15 81 0 96 9 9 74 12 253 10 l240 -3 3 -43z"/>
</g>
</svg>
